{
    "asset" : {
        "generator" : "Khronos glTF Blender I/O v3.4.49",
        "version" : "2.0"
    },
    "extensionsUsed" : [
        "KHR_materials_specular",
        "KHR_materials_ior"
    ],
    "scene" : 0,
    "scenes" : [
        {
            "name" : "Scene",
            "nodes" : [
                0,
                1
            ]
        }
    ],
    "nodes" : [
        {
            "mesh" : 0,
            "name" : "LowerJaw"
        },
        {
            "mesh" : 1,
            "name" : "upperJaw",
            "rotation" : [
                -0.08940523117780685,
                0,
                0,
                0.9959953427314758
            ],
            "translation" : [
                -0.0007685460150241852,
                0.14278121292591095,
                -0.038482408970594406
            ]
        }
    ],
    "animations" : [
        {
            "channels" : [
                {
                    "sampler" : 0,
                    "target" : {
                        "node" : 0,
                        "path" : "translation"
                    }
                },
                {
                    "sampler" : 1,
                    "target" : {
                        "node" : 0,
                        "path" : "rotation"
                    }
                },
                {
                    "sampler" : 2,
                    "target" : {
                        "node" : 0,
                        "path" : "scale"
                    }
                }
            ],
            "name" : "LowerJawLeft",
            "samplers" : [
                {
                    "input" : 16,
                    "interpolation" : "LINEAR",
                    "output" : 17
                },
                {
                    "input" : 16,
                    "interpolation" : "LINEAR",
                    "output" : 18
                },
                {
                    "input" : 19,
                    "interpolation" : "STEP",
                    "output" : 20
                }
            ]
        },
        {
            "channels" : [
                {
                    "sampler" : 0,
                    "target" : {
                        "node" : 0,
                        "path" : "translation"
                    }
                },
                {
                    "sampler" : 1,
                    "target" : {
                        "node" : 0,
                        "path" : "rotation"
                    }
                },
                {
                    "sampler" : 2,
                    "target" : {
                        "node" : 0,
                        "path" : "scale"
                    }
                }
            ],
            "name" : "LowerJawAction.001",
            "samplers" : [
                {
                    "input" : 16,
                    "interpolation" : "LINEAR",
                    "output" : 21
                },
                {
                    "input" : 16,
                    "interpolation" : "LINEAR",
                    "output" : 22
                },
                {
                    "input" : 19,
                    "interpolation" : "STEP",
                    "output" : 23
                }
            ]
        },
        {
            "channels" : [
                {
                    "sampler" : 0,
                    "target" : {
                        "node" : 0,
                        "path" : "translation"
                    }
                },
                {
                    "sampler" : 1,
                    "target" : {
                        "node" : 0,
                        "path" : "rotation"
                    }
                },
                {
                    "sampler" : 2,
                    "target" : {
                        "node" : 0,
                        "path" : "scale"
                    }
                }
            ],
            "name" : "LowerJawDown",
            "samplers" : [
                {
                    "input" : 24,
                    "interpolation" : "LINEAR",
                    "output" : 25
                },
                {
                    "input" : 24,
                    "interpolation" : "LINEAR",
                    "output" : 26
                },
                {
                    "input" : 19,
                    "interpolation" : "STEP",
                    "output" : 27
                }
            ]
        }
    ],
    "materials" : [
        {
            "doubleSided" : true,
            "extensions" : {
                "KHR_materials_specular" : {
                    "specularColorFactor" : [
                        0,
                        0,
                        0
                    ]
                },
                "KHR_materials_ior" : {
                    "ior" : 1.4500000476837158
                }
            },
            "name" : "dents",
            "pbrMetallicRoughness" : {
                "baseColorTexture" : {
                    "index" : 0
                },
                "roughnessFactor" : 0.858578622341156
            }
        },
        {
            "doubleSided" : true,
            "extensions" : {
                "KHR_materials_specular" : {
                    "specularColorFactor" : [
                        0,
                        0,
                        0
                    ]
                },
                "KHR_materials_ior" : {
                    "ior" : 1.4500000476837158
                }
            },
            "name" : "gum",
            "normalTexture" : {
                "index" : 1
            },
            "pbrMetallicRoughness" : {
                "baseColorFactor" : [
                    1,
                    0.3529411852359772,
                    0.2235294133424759,
                    1
                ],
                "roughnessFactor" : 0.858578622341156
            }
        }
    ],
    "meshes" : [
        {
            "name" : "Mesh",
            "primitives" : [
                {
                    "attributes" : {
                        "POSITION" : 0,
                        "TEXCOORD_0" : 1,
                        "NORMAL" : 2
                    },
                    "indices" : 3,
                    "material" : 0
                },
                {
                    "attributes" : {
                        "POSITION" : 4,
                        "TEXCOORD_0" : 5,
                        "NORMAL" : 6
                    },
                    "indices" : 7,
                    "material" : 1
                }
            ]
        },
        {
            "name" : "Mesh.001",
            "primitives" : [
                {
                    "attributes" : {
                        "POSITION" : 8,
                        "TEXCOORD_0" : 9,
                        "NORMAL" : 10
                    },
                    "indices" : 11,
                    "material" : 0
                },
                {
                    "attributes" : {
                        "POSITION" : 12,
                        "TEXCOORD_0" : 13,
                        "NORMAL" : 14
                    },
                    "indices" : 15,
                    "material" : 1
                }
            ]
        }
    ],
    "textures" : [
        {
            "sampler" : 0,
            "source" : 0
        },
        {
            "sampler" : 0,
            "source" : 1
        }
    ],
    "images" : [
        {
            "bufferView" : 4,
            "mimeType" : "image/jpeg",
            "name" : "noise3"
        },
        {
            "bufferView" : 9,
            "mimeType" : "image/jpeg",
            "name" : "podotactile_NM"
        }
    ],
    "accessors" : [
        {
            "bufferView" : 0,
            "componentType" : 5126,
            "count" : 643,
            "max" : [
                0.08291630446910858,
                0.13201019167900085,
                0.07438933849334717
            ],
            "min" : [
                -0.08549615740776062,
                0.07843781262636185,
                -0.05580218881368637
            ],
            "type" : "VEC3"
        },
        {
            "bufferView" : 1,
            "componentType" : 5126,
            "count" : 643,
            "type" : "VEC2"
        },
        {
            "bufferView" : 2,
            "componentType" : 5126,
            "count" : 643,
            "type" : "VEC3"
        },
        {
            "bufferView" : 3,
            "componentType" : 5123,
            "count" : 3354,
            "type" : "SCALAR"
        },
        {
            "bufferView" : 5,
            "componentType" : 5126,
            "count" : 257,
            "max" : [
                0.08187349885702133,
                0.11654418706893921,
                0.06913241744041443
            ],
            "min" : [
                -0.08445338904857635,
                0.06506530940532684,
                -0.057204719632864
            ],
            "type" : "VEC3"
        },
        {
            "bufferView" : 6,
            "componentType" : 5126,
            "count" : 257,
            "type" : "VEC2"
        },
        {
            "bufferView" : 7,
            "componentType" : 5126,
            "count" : 257,
            "type" : "VEC3"
        },
        {
            "bufferView" : 8,
            "componentType" : 5123,
            "count" : 1014,
            "type" : "SCALAR"
        },
        {
            "bufferView" : 10,
            "componentType" : 5126,
            "count" : 13256,
            "max" : [
                0.08880149573087692,
                0.010052965022623539,
                0.11290327459573746
            ],
            "min" : [
                -0.08961215615272522,
                -0.040059976279735565,
                -0.014518407173454762
            ],
            "type" : "VEC3"
        },
        {
            "bufferView" : 11,
            "componentType" : 5126,
            "count" : 13256,
            "type" : "VEC2"
        },
        {
            "bufferView" : 12,
            "componentType" : 5126,
            "count" : 13256,
            "type" : "VEC3"
        },
        {
            "bufferView" : 13,
            "componentType" : 5123,
            "count" : 59496,
            "type" : "SCALAR"
        },
        {
            "bufferView" : 14,
            "componentType" : 5126,
            "count" : 7003,
            "max" : [
                0.08844918757677078,
                0.017763176932930946,
                0.11427924782037735
            ],
            "min" : [
                -0.08910910040140152,
                -0.016725044697523117,
                -0.01797500252723694
            ],
            "type" : "VEC3"
        },
        {
            "bufferView" : 15,
            "componentType" : 5126,
            "count" : 7003,
            "type" : "VEC2"
        },
        {
            "bufferView" : 16,
            "componentType" : 5126,
            "count" : 7003,
            "type" : "VEC3"
        },
        {
            "bufferView" : 17,
            "componentType" : 5123,
            "count" : 32352,
            "type" : "SCALAR"
        },
        {
            "bufferView" : 18,
            "componentType" : 5126,
            "count" : 30,
            "max" : [
                1
            ],
            "min" : [
                0.03333333333333333
            ],
            "type" : "SCALAR"
        },
        {
            "bufferView" : 19,
            "componentType" : 5126,
            "count" : 30,
            "type" : "VEC3"
        },
        {
            "bufferView" : 20,
            "componentType" : 5126,
            "count" : 30,
            "type" : "VEC4"
        },
        {
            "bufferView" : 21,
            "componentType" : 5126,
            "count" : 1,
            "max" : [
                1
            ],
            "min" : [
                1
            ],
            "type" : "SCALAR"
        },
        {
            "bufferView" : 22,
            "componentType" : 5126,
            "count" : 1,
            "type" : "VEC3"
        },
        {
            "bufferView" : 23,
            "componentType" : 5126,
            "count" : 30,
            "type" : "VEC3"
        },
        {
            "bufferView" : 24,
            "componentType" : 5126,
            "count" : 30,
            "type" : "VEC4"
        },
        {
            "bufferView" : 25,
            "componentType" : 5126,
            "count" : 1,
            "type" : "VEC3"
        },
        {
            "bufferView" : 26,
            "componentType" : 5126,
            "count" : 31,
            "max" : [
                1
            ],
            "min" : [
                0
            ],
            "type" : "SCALAR"
        },
        {
            "bufferView" : 27,
            "componentType" : 5126,
            "count" : 31,
            "type" : "VEC3"
        },
        {
            "bufferView" : 28,
            "componentType" : 5126,
            "count" : 31,
            "type" : "VEC4"
        },
        {
            "bufferView" : 29,
            "componentType" : 5126,
            "count" : 1,
            "type" : "VEC3"
        }
    ],
    "bufferViews" : [
        {
            "buffer" : 0,
            "byteLength" : 7716,
            "byteOffset" : 0,
            "target" : 34962
        },
        {
            "buffer" : 0,
            "byteLength" : 5144,
            "byteOffset" : 7716,
            "target" : 34962
        },
        {
            "buffer" : 0,
            "byteLength" : 7716,
            "byteOffset" : 12860,
            "target" : 34962
        },
        {
            "buffer" : 0,
            "byteLength" : 6708,
            "byteOffset" : 20576,
            "target" : 34963
        },
        {
            "buffer" : 0,
            "byteLength" : 979280,
            "byteOffset" : 27284
        },
        {
            "buffer" : 0,
            "byteLength" : 3084,
            "byteOffset" : 1006564,
            "target" : 34962
        },
        {
            "buffer" : 0,
            "byteLength" : 2056,
            "byteOffset" : 1009648,
            "target" : 34962
        },
        {
            "buffer" : 0,
            "byteLength" : 3084,
            "byteOffset" : 1011704,
            "target" : 34962
        },
        {
            "buffer" : 0,
            "byteLength" : 2028,
            "byteOffset" : 1014788,
            "target" : 34963
        },
        {
            "buffer" : 0,
            "byteLength" : 205171,
            "byteOffset" : 1016816
        },
        {
            "buffer" : 0,
            "byteLength" : 159072,
            "byteOffset" : 1221988,
            "target" : 34962
        },
        {
            "buffer" : 0,
            "byteLength" : 106048,
            "byteOffset" : 1381060,
            "target" : 34962
        },
        {
            "buffer" : 0,
            "byteLength" : 159072,
            "byteOffset" : 1487108,
            "target" : 34962
        },
        {
            "buffer" : 0,
            "byteLength" : 118992,
            "byteOffset" : 1646180,
            "target" : 34963
        },
        {
            "buffer" : 0,
            "byteLength" : 84036,
            "byteOffset" : 1765172,
            "target" : 34962
        },
        {
            "buffer" : 0,
            "byteLength" : 56024,
            "byteOffset" : 1849208,
            "target" : 34962
        },
        {
            "buffer" : 0,
            "byteLength" : 84036,
            "byteOffset" : 1905232,
            "target" : 34962
        },
        {
            "buffer" : 0,
            "byteLength" : 64704,
            "byteOffset" : 1989268,
            "target" : 34963
        },
        {
            "buffer" : 0,
            "byteLength" : 120,
            "byteOffset" : 2053972
        },
        {
            "buffer" : 0,
            "byteLength" : 360,
            "byteOffset" : 2054092
        },
        {
            "buffer" : 0,
            "byteLength" : 480,
            "byteOffset" : 2054452
        },
        {
            "buffer" : 0,
            "byteLength" : 4,
            "byteOffset" : 2054932
        },
        {
            "buffer" : 0,
            "byteLength" : 12,
            "byteOffset" : 2054936
        },
        {
            "buffer" : 0,
            "byteLength" : 360,
            "byteOffset" : 2054948
        },
        {
            "buffer" : 0,
            "byteLength" : 480,
            "byteOffset" : 2055308
        },
        {
            "buffer" : 0,
            "byteLength" : 12,
            "byteOffset" : 2055788
        },
        {
            "buffer" : 0,
            "byteLength" : 124,
            "byteOffset" : 2055800
        },
        {
            "buffer" : 0,
            "byteLength" : 372,
            "byteOffset" : 2055924
        },
        {
            "buffer" : 0,
            "byteLength" : 496,
            "byteOffset" : 2056296
        },
        {
            "buffer" : 0,
            "byteLength" : 12,
            "byteOffset" : 2056792
        }
    ],
    "samplers" : [
        {
            "magFilter" : 9729,
            "minFilter" : 9987
        }
    ],
    "buffers" : [
        {
            "byteLength" : 2056804,
            "uri" : "data:application/octet-stream;base64,"
        }
    ]
}
